<?xml version="1.0" encoding="UTF-8"?>
<svg id="OBJECTS" xmlns="http://www.w3.org/2000/svg" viewBox="0 0 500 500">
  <defs>
    <style>
      .cls-1 {
        fill: #b2f1f6;
      }

      .cls-2 {
        fill: #b99127;
      }

      .cls-3 {
        fill: #b88020;
      }

      .cls-4 {
        fill: #283847;
      }

      .cls-5 {
        fill: #eac147;
      }

      .cls-6 {
        fill: #74b5bc;
      }
    </style>
  </defs>
  <g>
    <path class="cls-6" d="M405.67,169.8l-14.51,22.64-19.85,30.98-41.31,64.48-41.32,64.02-50,77.6H45.3l9.36-55.3c1.24-7.62,2.54-14.83,3.89-22.07,4.37-23.3,9.36-44.63,14.84-64.36,6.67-23.93,14.07-45.29,22.08-64.42,10.55-25.25,22.13-46.53,34.38-64.44,81.32-119.2,191.45-89.09,219.6-76.52,51.64,23.08,56.23,87.4,56.23,87.4Z"/>
    <path class="cls-1" d="M330,285.13l-41.32,68.91H58.55c4.37-22.97,9.36-45.94,14.84-68.91h256.62Z"/>
    <path class="cls-1" d="M391.21,160.42v62.35H95.46c10.55-26.25,22.13-45.94,34.38-62.35h261.37Z"/>
  </g>
  <path class="cls-2" d="M404.82,167.46s52.82,51.12,49.41,56.23c-3.41,5.11-56.23,27.27-56.23,27.27l6.82-83.5Z"/>
  <path class="cls-5" d="M357.33,215.9l-7.43,200.49h55.69s-9.65-193.81-48.26-200.49Z"/>
  <path class="cls-4" d="M417.68,202.36c4.26-82.55-97.13-111.63-159.23-80.39-31.06,15.62-50.53,45.58-50.53,80.43,0,22.24,7.82,42.64,20.86,58.63,25.43,34.08,15.53,73.68,15.53,73.68,0,0,125.33-13.19,113.87-13.19-.43,0,3.51-22.03,5.39-24.02,24.57-26.07,49.75-52.77,53.73-90.17.18-1.66.3-3.32.39-4.97Z"/>
  <g>
    <polygon class="cls-3" points="297.5 183.76 332.22 187.56 332.64 196.44 297.5 199.48 297.5 183.76"/>
    <path class="cls-3" d="M355.45,170.79c-17.48,0-31.64,20.97-31.64,20.97,0,0,14.17,20.96,31.64,20.96s31.63-20.96,31.63-20.96c0,0-14.15-20.97-31.63-20.97ZM355.45,205.98c-12.13,0-21.96-14.56-21.96-14.56,0,0,9.83-14.54,21.96-14.54s21.97,14.54,21.97,14.54c0,0-9.84,14.56-21.97,14.56Z"/>
    <path class="cls-5" d="M355.45,179.18c-5.83,0-10.55,5.63-10.55,12.57s4.72,12.57,10.55,12.57,10.55-5.63,10.55-12.57-4.72-12.57-10.55-12.57Z"/>
  </g>
  <path class="cls-2" d="M241.83,297.58s89.99,31.81,121.72-.28c0,0,2.04,51.3,36.69,56.25,34.65,4.95,51.99,20.18,54.46,75.97H130.42s19.83-70.52,56.96-77.94c37.13-7.43,61.87-4.9,54.45-54Z"/>
  <path class="cls-5" d="M247.61,222.8c-32.01,27.11-73.86,118.3-76.42,207.63h76.42v-207.63Z"/>
</svg>