<?xml version="1.0" encoding="UTF-8"?>
<svg id="OBJECTS" xmlns="http://www.w3.org/2000/svg" viewBox="0 0 500 500">
  <defs>
    <style>
      .cls-1 {
        fill: #b2f1f6;
      }

      .cls-2 {
        fill: #b99127;
      }

      .cls-3 {
        fill: #83ced7;
      }

      .cls-4 {
        fill: #eac147;
      }

      .cls-5 {
        fill: #74b5bc;
      }
    </style>
  </defs>
  <g>
    <path class="cls-2" d="M243.33,350.29v81.88h-51.55v-47.51c-9.1-.6-15.83-1.22-16.95-1.45-26.97-5.31-64.89-18.32-76.01-46.04-16.98-42.37,8.04-88.45,19.94-128.71,2.18-7.39,4.98-15,5.71-22.72,6.81-70.86-16.99-117.49-17.64-117.49h.01c1.7,0,56.77,31.13,55.4,96.41-1.31,62.36-32.97,161.36,49.42,185.62h31.68Z"/>
    <path class="cls-4" d="M211.66,350.29h31.68v14.22c-24.26-1.44-47.8-5.33-69.96-11.19-87.64-23.21-59.47-77.35-38.84-165.01,20.3-86.25-26.11-119.44-27.6-120.49,1.7.89,56.73,31.35,55.36,96.63-1.31,62.36-33.01,161.57,49.37,185.83Z"/>
  </g>
  <g>
    <path class="cls-2" d="M401.19,337.17c-11.1,27.72-49.72,40.73-76.7,46.04-1.1.23-8.37.84-17.47,1.45v47.51h-51.55v-81.88h32.71c82.4-24.26,50.72-123.48,49.42-185.83-1.36-65.79,54.55-95.67,55.41-96.09-.15.31-1.75,3.09-3.92,8.59-6.65,16.6-18.81,55.46-13.68,108.72.74,7.72,3.59,15.48,5.78,22.87,11.88,40.25,37,86.27,20.01,128.64Z"/>
    <path class="cls-4" d="M389.09,76.68c-34.01,54.81-8.11,169.36-10.26,225.08-1.8,46.77-59.68,64.68-123.36,63.32v-14.79h32.71c82.4-24.26,50.72-123.48,49.42-185.83-1.36-65.79,54.55-95.67,55.41-96.09-.15.31-1.75,2.82-3.92,8.32Z"/>
  </g>
  <g>
    <path class="cls-5" d="M353.73,258.69c0,3.66-.19,7.29-.57,10.87-5.43,52.87-50.1,94.12-104.41,94.12-34.6,0-65.3-16.74-84.41-42.55-12.93-17.45-20.58-39.05-20.58-62.43,0-57.97,47.01-104.98,104.99-104.98s104.98,47.01,104.98,104.98Z"/>
    <path class="cls-1" d="M297.84,202.86c6.23,27.79-16.32,56.5-50.36,64.14-34.04,7.63-66.68-8.71-72.91-36.5-6.23-27.79,16.32-56.5,50.35-64.13,34.04-7.63,66.68,8.71,72.92,36.5Z"/>
    <path class="cls-3" d="M353.16,269.55c-5.43,52.87-50.1,94.12-104.41,94.12-34.6,0-65.3-16.74-84.41-42.55,49.67,21.86,124.28,32.1,188.82-51.56Z"/>
  </g>
</svg>