<?xml version="1.0" encoding="UTF-8"?>
<svg id="OBJECTS" xmlns="http://www.w3.org/2000/svg" viewBox="0 0 500 500">
  <defs>
    <style>
      .cls-1 {
        fill: #b2f1f6;
      }

      .cls-2 {
        fill: #b99127;
      }

      .cls-3 {
        fill: #83ced7;
      }

      .cls-4 {
        fill: #283847;
      }

      .cls-5 {
        fill: #eac147;
      }

      .cls-6 {
        fill: #74b5bc;
      }
    </style>
  </defs>
  <path class="cls-4" d="M380.18,215.48c-1.61-1.51-3.86-2.25-6.13-1.98l-85.92,10.06c-.4-.91-.85-1.79-1.33-2.67,39.26-32.05,55.45-58.89,49.48-81.97-5.98-23.15-33.1-39.72-82.85-50.65-.03,0-.05-.02-.07-.03-1.94-.82-4.14-.8-6.04,0-50.42,10.93-77.9,27.52-83.96,50.71-5.93,22.7,9.79,49.07,48.02,80.5-.76,1.25-1.44,2.54-2.04,3.86l-83.9-9.82c-2.26-.28-4.52.47-6.12,1.98-1.61,1.51-2.38,3.63-2.08,5.75l7.31,52.38c.25,1.83,1.28,3.48,2.85,4.59,1.57,1.11,3.56,1.59,5.5,1.32l15.82-2.17c.07.07.14.13.22.19.04.04.19.18.23.22.86.77,1.73,1.5,2.59,2.2l.39.3c.71.58,1.44,1.13,2.16,1.67l.72.51c.62.44,1.24.87,1.85,1.27l.82.53c.62.39,1.24.77,2.01,1.22.2.13.42.25.59.34.73.41,1.45.8,2.23,1.19l.38.19c1.75.87,3.57,1.65,5.39,2.31l.47.16c.75.26,1.49.5,2.24.72l.44.13.18.05.25.08c.27.08.53.15.81.22.29.08.58.14.86.21l.74.17c1.8.4,3.62.69,5.41.88l.21.02c.79.08,1.58.13,2.4.17l.54.97c.56.02,1.13.98,1.69.98h.59l.33-.95c1.69-.03,3.41-.64,5.11-.85l.5-.3c.66-.09,1.31-.31,1.97-.43l.67-.18c.63-.12,1.25-.28,2-.45l.42-.96c.81-.19,1.61,1.28,2.58-1.55h0c.71,0,1.41.44,2.1.22l.7.19c.53-.18,1.05-.15,1.59-.35l.75-.18c.54-.21,1.08-.37,1.79-.66l.44-.16c.71-.31,1.41-.61,2.13-.94l.52-.25c.53-.26,1.06-.51,1.54-.76.29-.14.56-.28.81-.41.43-.23.87-.47,1.31-.7l.8-.45c.47-.26.93-.53,1.39-.81l.63-.37c.63-.38,1.24-.76,1.82-1.13l1.96-1.29,4.91-3.56c.4-.31.81-.63,1.22-.96l1.33-1.08-17.65,149.41c-.22,1.91.42,3.82,1.76,5.27,1.34,1.45,3.27,2.38,5.33,2.44l34.2,1.08h.46l33.58-1.08c2.05-.06,3.99-.96,5.33-2.41,1.35-1.45,1.98-3.39,1.74-5.3l-17.8-146.66,5.9,4.12c.61.4,1.23.78,1.88,1.17l.6.35c.46.28.92.55,1.4.81l.8.45c.43.23.87.47,1.26.68.28.15.56.29.81.42.52.27,1.05.53,1.66.83l.46.22c.7.33,1.39.65,2.11.95l.6.25c.54.23,1.08.44,1.59.64l.8.3c.52.19,1.05.38,1.6.57l.66.22c.7.23,1.41.45,2.11.65.06.02.12.04.18.05.79.23,1.6.43,2.41.62l.55.12c.62.14,1.24.27,1.83.38l.71.13c.65.11,1.3.22,2.05.32l.42.06c1.69.21,3.41.33,5.17.37h.87c.56,0,1.13,0,1.67-.02l.6-.02c.78-.04,1.57-.09,2.29-.16.07,0,.24-.02.31-.03,1.77-.18,3.58-.47,5.43-.88l.69-.16c.28-.06.58-.13.9-.21.25-.07.51-.14.78-.22l.87-.25c.74-.22,1.49-.46,2.27-.74l.43-.14c1.83-.66,3.65-1.44,5.42-2.33l.41-.21c.73-.37,1.45-.75,2.13-1.14.21-.12.43-.24.79-.46.62-.37,1.24-.74,1.87-1.14l.79-.51c.62-.41,1.25-.84,1.87-1.28l.73-.52c.72-.53,1.44-1.08,2.21-1.7l.34-.26c.86-.7,1.72-1.43,2.52-2.13l.31-.28c.2-.19.41-.37.61-.56l18.48,2.54c1.95.27,3.94-.21,5.51-1.32,1.57-1.11,2.6-2.77,2.86-4.59l7.34-52.38c.3-2.11-.47-4.24-2.07-5.75ZM214.32,144.66c3.51-12.68,23.23-18.17,35.35-21.45,12.13,3.28,31.85,8.77,35.36,21.46,2.4,8.68-1.39,25.21-32.36,54.97-1.35-.12-2.69-.18-4-.18-.7,0-1.39.02-2.11.05-30.87-29.7-34.63-46.19-32.24-54.85Z"/>
  <g>
    <path class="cls-2" d="M380.69,196.13c-1.68-1.71-4.05-2.55-6.45-2.27l-88.37,10.44c27.64-22.48,58.44-53.5,51.5-84.18-5.46-24.15-32.52-41.35-82.67-52.57-.01,0-.02-.01-.03-.02-1.96-.86-4.17-.83-6.11-.01-51.05,11.26-78.61,28.55-84.2,52.86-5.43,23.63,11.08,50.92,50.44,83.29-.17.21-.35.42-.52.63l-88.52-10.43c-2.39-.28-4.76.56-6.45,2.27-1.68,1.71-2.47,4.11-2.15,6.49l7.25,52.84c.28,2.04,1.36,3.89,3.01,5.13,1.64,1.25,3.7,1.78,5.75,1.5l17.75-2.46c7.15,6.33,14.77,10.64,22.7,12.82.19.07.4.14.61.19.24.06.48.11.74.17,1.32.32,2.49.56,3.58.74.21.04.42.07.71.1,1.09.16,2.18.28,3.29.37l.99.07c1.23.07,2.47.08,3.67.06.25,0,.49-.02.88-.04,1.07-.04,2.13-.12,3.34-.25l.59-.06c1.2-.15,2.4-.35,3.58-.58.3-.06.6-.12.86-.18,1.16-.25,2.32-.52,3.39-.82.06-.01.18-.04.24-.06,1.18-.33,2.35-.72,3.53-1.14l.74-.27c1.14-.42,2.27-.87,3.42-1.37l.29-.13c1.06-.46,2.1-.96,3.25-1.54l.42-.2c1.09-.56,2.16-1.14,3.18-1.73l.5-.29c1.02-.59,2.03-1.21,3.03-1.85.03-.02.15-.09.18-.11,1.03-.67,2.06-1.36,3.11-2.11l.4-.28c.45-.32.89-.65,1.35-.98.74.51,1.51.99,2.29,1.44l-16.61,145.65c-.25,2.16.42,4.32,1.85,5.97,1.43,1.64,3.47,3.64,5.64,3.7l34.71,2.04h.47l33.05-2.04c2.18-.07,4.23-1.56,5.65-3.22,1.42-1.66,2.08-4.09,1.82-6.25l-17.94-147.25c.26-.18.52-.43.78-.61.7.53,1.41,1.02,2.11,1.52l.55.37c1,.7,2,1.38,2.89,1.95l.41.26c.96.61,1.93,1.2,2.92,1.78l.52.3c1.04.6,2.1,1.18,3.18,1.73l.58.29c1,.5,2.02.99,3.12,1.47l.33.15c1.1.48,2.23.92,3.36,1.34l.61.22s.18.07.19.07c1.15.4,2.31.79,3.57,1.15l.14.04c1.12.31,2.25.58,3.41.83l.87.18c1.18.23,2.37.42,3.53.57.22.03.44.05.77.08,1.05.12,2.11.19,3.21.24l.85.04c1.22.03,2.45.01,3.67-.06l1-.07c1.1-.08,2.21-.2,3.35-.37.22-.02.43-.05.64-.09,1.09-.18,2.26-.42,3.59-.75.25-.05.5-.1.74-.16.2-.05.4-.12.59-.19,7.96-2.19,15.61-6.52,22.79-12.89l18.23,2.53c2.05.28,4.12-.26,5.76-1.5,1.64-1.25,2.72-3.09,3-5.14l7.2-52.84c.32-2.38-.47-4.78-2.15-6.49ZM214.74,126.02c3.04-12.7,22.92-18.28,35.13-21.61,12.22,3.33,32.09,8.91,35.13,21.61,2.13,8.89-2.46,25.85-35.13,56.69-32.67-30.84-37.25-47.8-35.13-56.69Z"/>
    <g>
      <path class="cls-5" d="M377.09,201.57l-108.45,12.81-5.1-1.85c36.72-27.65,138.13-104.95-12.07-137.74v-.15s.11.05,0,.08c-.11-.03,0-.05,0-.05v.13c-150.2,32.79-48.46,110.09-11.73,137.74l-4.75,1.85-108.46-12.81,7.39,52.83,103.99-14.41-20.15,168.12,33.73,1.01h0s0,0,0,0h0s0,0,0,0l34.07-1.01-19.98-168.12,104.07,14.41,7.47-52.83ZM251.82,96.36c24.41,6.7,83.9,20.84,0,96.92-83.9-76.08-24.42-90.22,0-96.92Z"/>
      <g>
        <g>
          <path class="cls-1" d="M252.92,220.56s-56.03,91.48-107.31,21.4c-4.33-5.92-8.63-12.9-12.85-21.4h120.16Z"/>
          <path class="cls-6" d="M252.92,220.56s-34.88,55.65-74.79,45.27c-10.67-2.77-21.71-9.73-32.52-24.52,27.61,5.47,63.35,4.75,98.45-20.75h8.86Z"/>
          <path class="cls-3" d="M252.92,220.56s-34.88,56.94-74.79,46.57c21.9-4.43,47.3-21.06,73.98-46.57h.81Z"/>
        </g>
        <g>
          <path class="cls-1" d="M250.44,220.56s56.03,91.48,107.31,21.4c4.32-5.92,8.62-12.9,12.85-21.4h-120.16Z"/>
          <path class="cls-6" d="M250.44,220.56s34.88,55.65,74.78,45.27c10.66-2.77,21.71-9.73,32.53-24.52-27.62,5.47-63.35,4.75-98.45-20.75h-8.86Z"/>
          <path class="cls-3" d="M250.44,220.56s34.88,56.94,74.78,46.57c-21.9-4.43-47.3-21.06-73.98-46.57h-.81Z"/>
        </g>
      </g>
      <g>
        <g>
          <path class="cls-2" d="M286.07,228c0,17.72-15.79,32.08-35.26,32.08s-35.26-14.37-35.26-32.08,15.79-32.09,35.26-32.09,35.26,14.36,35.26,32.09Z"/>
          <path class="cls-6" d="M273.25,227.85c.02,1.72-.2,3.38-.64,4.98-2.37,8.89-11.12,15.52-21.65,15.58-5.18.03-9.98-1.54-13.79-4.23-5.13-3.57-8.54-9.13-8.79-15.43-.01-.2-.01-.42-.01-.62-.09-11.26,9.89-20.46,22.28-20.55,7.14-.06,13.53,2.95,17.65,7.65,3.07,3.45,4.91,7.85,4.95,12.62Z"/>
        </g>
        <g>
          <path class="cls-1" d="M268.3,215.24c-.96,11.3-10.98,20.19-23.21,20.19-6.54,0-12.47-2.55-16.72-6.67-.01-.2-.01-.42-.01-.62-.09-11.26,9.89-20.46,22.28-20.55,7.14-.06,13.53,2.95,17.65,7.65Z"/>
          <path class="cls-3" d="M272.61,232.84c-2.37,8.89-11.12,15.52-21.65,15.58-5.18.03-9.98-1.54-13.79-4.23,9.38,1.3,22.1-.19,35.43-11.35Z"/>
        </g>
      </g>
      <polygon class="cls-2" points="253.06 286.41 237.13 393.43 267.16 393.43 253.06 286.41"/>
    </g>
  </g>
</svg>