<?xml version="1.0" encoding="UTF-8"?>
<svg id="OBJECTS" xmlns="http://www.w3.org/2000/svg" viewBox="0 0 500 500">
  <defs>
    <style>
      .cls-1 {
        fill: #b2f1f6;
      }

      .cls-2 {
        fill: #b99127;
      }

      .cls-3 {
        fill: #83ced7;
      }

      .cls-4 {
        fill: #283847;
      }

      .cls-5 {
        fill: #e8c457;
      }

      .cls-6 {
        fill: #74b5bc;
      }
    </style>
  </defs>
  <path class="cls-4" d="M439.94,307.46l-48.67-68.4c-2.16-3.03-6.12-4.14-9.54-2.68l-24.15,10.35c-2.67-10.15-6.38-19.88-11.1-29.06l37.98-48.07c2.32-2.94,2.26-7.09-.14-9.96l-53.93-64.46c-1.71-2.03-4.33-3.08-6.98-2.77-2.64.31-4.95,1.93-6.14,4.31-.61,1.23-13.99,29.4,25.85,68.14l-20.46,19.93c-.88-.89-1.78-1.75-2.69-2.61,2.01-5.3,2.51-10.19,2.51-13.74,0-11.75-4.97-24.14-13.98-34.83-14.36-17.17-36.21-27.42-58.45-27.42-32.75,0-57.87,21.31-67.36,41.13-3.34,7.05-5.04,14.16-5.04,21.12,0,3.58.5,8.51,2.55,13.85-.92.85-1.82,1.73-2.72,2.62l-20.58-20.05c39.84-38.74,26.46-66.9,25.85-68.14-1.19-2.38-3.5-4-6.14-4.31-2.64-.32-5.26.74-6.97,2.77l-53.93,64.46c-2.4,2.87-2.46,7.02-.14,9.96l38.08,48.2c-3.12,6.05-5.8,12.36-8.02,18.81-1.14,3.3-2.17,6.71-3.08,10.17l-24.26-10.4c-3.41-1.46-7.38-.35-9.53,2.68l-48.67,68.4c-1.64,2.31-1.88,5.32-.69,7.89,1.18,2.56,3.7,4.31,6.51,4.56,0,0,.57.06,1.63.06,6.14,0,36.08-2.02,58.05-39.3l12.25,9.68c.41,9.34,1.77,18.33,4.07,26.84l-27.82,22.41c-2.93,2.36-3.79,6.44-2.06,9.78l38.59,74.56c1.31,2.53,3.88,4.16,6.72,4.26,2.89.1,5.52-1.32,7.01-3.75.8-1.29,18.06-30.35-7.51-70.85l2.18-.95c20.13,26.89,52.19,41.61,91.05,41.61s70.91-14.7,91.05-41.58l2.1.91c-25.57,40.51-8.31,69.56-7.51,70.85,1.44,2.34,3.99,3.76,6.72,3.76.09,0,.19,0,.29,0,2.84-.1,5.41-1.73,6.72-4.26l38.58-74.56c1.72-3.33.86-7.42-2.06-9.78l-27.74-22.34c2.32-8.55,3.69-17.59,4.09-26.99l12.14-9.59c21.97,37.28,51.91,39.3,58.05,39.3h0c1.06,0,1.63-.06,1.63-.06,2.82-.25,5.33-1.99,6.52-4.56,1.18-2.57.95-5.58-.69-7.88Z"/>
  <g>
    <path class="cls-2" d="M439.94,286.93l-48.67-68.4c-2.16-3.03-6.12-4.15-9.54-2.68l-24.15,10.35c-2.67-10.15-6.38-19.88-11.1-29.07l37.98-48.07c2.32-2.93,2.26-7.09-.14-9.95l-53.93-64.46c-1.71-2.04-4.33-3.08-6.98-2.78-2.64.31-4.95,1.93-6.14,4.31-.61,1.24-13.99,29.4,25.85,68.14l-20.46,19.93c-.88-.89-1.78-1.76-2.69-2.6,2.01-5.31,2.51-10.2,2.51-13.75,0-11.75-4.97-24.13-13.98-34.83-14.36-17.17-36.21-27.42-58.45-27.42-32.75,0-57.87,21.31-67.36,41.14-3.34,7.04-5.04,14.15-5.04,21.12,0,3.58.5,8.51,2.55,13.85-.92.86-1.82,1.74-2.72,2.62l-20.58-20.05c39.84-38.74,26.46-66.9,25.85-68.14-1.19-2.38-3.5-4-6.14-4.31-2.64-.31-5.26.74-6.97,2.78l-53.93,64.46c-2.4,2.87-2.46,7.03-.14,9.95l38.08,48.2c-3.12,6.06-5.8,12.36-8.02,18.81-1.14,3.3-2.17,6.7-3.08,10.16l-24.26-10.39c-3.41-1.47-7.38-.35-9.53,2.68l-48.67,68.4c-1.64,2.3-1.88,5.32-.69,7.88,1.18,2.57,3.7,4.31,6.51,4.56,0,0,.57.05,1.63.05,6.14,0,36.08-2.01,58.05-39.3l12.25,9.67c.41,9.34,1.77,18.33,4.07,26.84l-27.82,22.41c-2.93,2.35-3.79,6.44-2.06,9.77l38.59,74.56c1.31,2.53,3.88,4.16,6.72,4.26,2.89.09,5.52-1.32,7.01-3.75.8-1.29,18.06-30.35-7.51-70.86l2.18-.94c20.13,26.89,52.19,41.61,91.05,41.61s70.91-14.71,91.05-41.58l2.1.91c-25.57,40.51-8.31,69.56-7.51,70.86,1.44,2.34,3.99,3.76,6.72,3.76.09,0,.19,0,.29,0,2.84-.1,5.41-1.73,6.72-4.26l38.58-74.56c1.72-3.33.86-7.42-2.06-9.77l-27.74-22.35c2.32-8.55,3.69-17.59,4.09-26.99l12.14-9.59c21.97,37.29,51.91,39.3,58.05,39.3h0c1.06,0,1.63-.05,1.63-.05,2.82-.25,5.33-2,6.52-4.56,1.18-2.57.95-5.58-.69-7.88Z"/>
    <g>
      <g>
        <path class="cls-5" d="M152,238.89l-36.83-15.79-48.67,68.41s34.2,2.63,56.57-43.41l24.99,19.73,3.95-28.94Z"/>
        <path class="cls-5" d="M155.95,295.45l-36.93,29.75,38.58,74.56s17.97-29.21-12.74-70.15l24.25-10.48-13.15-23.68Z"/>
        <path class="cls-5" d="M167.79,202.44l-46.04-58.27,53.94-64.46s13.15,26.31-30.26,64.46l35.52,34.59-13.16,23.68Z"/>
      </g>
      <g>
        <path class="cls-5" d="M348,238.89l36.83-15.79,48.68,68.41s-34.21,2.63-56.57-43.41l-25,19.73-3.95-28.94Z"/>
        <path class="cls-5" d="M344.06,295.45l36.93,29.75-38.58,74.56s-17.98-29.21,12.74-70.15l-24.25-10.48,13.16-23.68Z"/>
        <path class="cls-5" d="M332.22,202.44l46.04-58.27-53.93-64.46s-13.16,26.31,30.26,64.46l-35.52,34.59,13.16,23.68Z"/>
      </g>
    </g>
    <path class="cls-5" d="M302.06,157.26c-15.84-10.97-33.83-16.77-52.02-16.77-41.95,0-80.92,31.41-96.96,78.16-5,14.49-7.52,29.67-7.52,45.14,0,61.03,41.99,102.04,104.48,102.04s104.51-41,104.51-102.04c0-43.27-20.11-84.08-52.49-106.52Z"/>
    <g>
      <path class="cls-6" d="M342.3,263.78c0,16.81-3.33,31.32-9.29,43.47-15,30.58-46.53,46.33-82.98,46.33-26.5,0-50.39-8.33-67.22-24.62-15.53-15.04-25.02-36.84-25.02-65.17,0-14.35,2.42-28.3,6.87-41.14,13.77-40.13,46.8-69.91,85.37-69.91,16.36,0,31.73,5.36,45.05,14.6,28.16,19.51,47.22,56.33,47.22,96.45Z"/>
      <path class="cls-1" d="M312.91,215.6c0,41.03-33.26,74.28-74.29,74.28-38.68,0-70.44-29.51-73.97-67.25,13.77-40.12,46.81-69.9,85.38-69.9,16.36,0,31.72,5.36,45.04,14.6,11.12,12.98,17.83,29.83,17.83,48.28Z"/>
    </g>
    <g>
      <path class="cls-5" d="M302.43,118.12c-12.88-15.4-32.46-24.59-52.39-24.59-29.33,0-51.78,18.97-60.23,36.63-2.84,5.98-4.27,11.94-4.27,17.74,0,11.36,6.29,37.8,64.51,37.8s64.54-26.44,64.54-37.8c0-9.89-4.32-20.48-12.15-29.77Z"/>
      <g>
        <path class="cls-6" d="M303.51,147.9c0,19.36-23.95,26.74-53.48,26.74s-53.45-7.38-53.45-26.74c0-4.2,1.14-8.63,3.21-12.99,7.49-15.66,27.16-30.31,50.24-30.31,18.19,0,34.29,9.12,43.91,20.63,6.03,7.16,9.57,15.26,9.57,22.67Z"/>
        <path class="cls-1" d="M293.94,125.22c-8.21,13.86-28.07,23.62-51.26,23.62-17.31,0-32.77-5.45-42.89-13.94,7.49-15.66,27.16-30.31,50.24-30.31,18.19,0,34.29,9.12,43.91,20.63Z"/>
      </g>
    </g>
    <path class="cls-3" d="M333.01,307.25c-15,30.58-46.53,46.33-82.98,46.33-26.5,0-50.39-8.33-67.22-24.62,41.34,10.63,100.76,15.9,150.2-21.71Z"/>
    <path class="cls-5" d="M345.25,244.15c-2.48-.06-58.52-.93-95.4,25.6-36.9-26.53-93.2-25.66-95.67-25.6-4.2.09-7.53,3.69-7.44,8.04.08,4.36,3.01,7.89,7.16,7.73.58,0,57.72-.83,87.31,23.65v69.09c0,4.36,4.68,7.9,8.88,7.9s8.88-3.53,8.88-7.9v-69.09c26.63-24.47,86.32-23.66,86.9-23.65,4.15.16,7.17-3.38,7.25-7.73.07-4.36-3.67-7.96-7.86-8.04Z"/>
  </g>
</svg>