<?xml version="1.0" encoding="UTF-8"?>
<svg id="DESIGNED_BY_FREEPIK" data-name="DESIGNED BY FREEPIK" xmlns="http://www.w3.org/2000/svg" viewBox="0 0 500 500">
  <defs>
    <style>
      .cls-1 {
        fill: #b2f1f6;
      }

      .cls-2 {
        fill: #b99127;
      }

      .cls-3 {
        fill: #b88020;
      }

      .cls-4 {
        fill: #283847;
      }

      .cls-5 {
        fill: #eac147;
      }

      .cls-6 {
        fill: #74b5bc;
      }
    </style>
  </defs>
  <g>
    <path class="cls-6" d="M415.03,331.1l-63.14,2.78s-7.59,3.69-12.31,18.12c-1.74,5.32-3.09,12.1-3.51,20.69,0,0-.01,9.65-4,21.19-5.7,16.47-19.83,36.77-53.25,38.4,0,0-7.4.71-9.91-1.67v-179.76c-7.55,1.72-14.18,2.64-21.44,2.64-6.33,0-11.26-.7-18.81-2.01v179.13c-2.52,2.38-8.66,1.67-8.66,1.67-33.42-1.63-46.77-21.92-52.48-38.4-4.01-11.54-3.8-21.19-3.8-21.19-.42-8.59-1.64-15.37-3.38-20.69-4.71-14.43-12.23-18.12-12.23-18.12l-63.14-2.78s4.12-24.94,10.1-57.03c6.87-36.85,16.22-83.16,24.65-112.05,1.18-4.02,2.88-7.91,5.02-11.65,15.71-27.49,55.15-47.45,84.83-59.18,11.72-6.11,24.63-9.55,38.72-9.55,7.27,0,13.08.92,20.62,2.64v-.59c30.19,9.32,86.21,31.99,105.98,66.69,2.14,3.74,3.99,7.63,5.18,11.65,8.44,28.89,17.88,75.2,24.76,112.05,5.99,32.1,10.19,57.03,10.19,57.03Z"/>
    <path class="cls-1" d="M102.77,234.45c-2.76,13.55-5.36,26.98-7.68,39.18h309.83c-2.33-12.2-4.94-25.63-7.7-39.18H102.77Z"/>
    <path class="cls-1" d="M390.51,202.87c-3.43-15.33-6.92-29.64-10.28-41.11-1.17-4.02-2.87-8.46-5.01-11.47H124.75c-2.14,3.01-3.84,7.45-5.02,11.47-3.35,11.47-6.84,25.77-10.26,41.11h281.04Z"/>
    <path class="cls-5" d="M160.47,353.77h68.2v76.84c-2.52,2.38-8.66,1.67-8.66,1.67-56.86-2.77-56.53-58.7-56.53-58.7-.42-8.59-1.28-17.28-3.01-19.8Z"/>
    <path class="cls-5" d="M339.58,353.77c-1.74,2.52-3.09,11.21-3.51,19.8,0,0-.39,56.38-57.25,59.15,0,0-7.4.26-9.91-2.11v-76.84h70.67Z"/>
    <path class="cls-2" d="M168.02,394.02h60.65v36.59c-2.52,2.38-8.66,1.74-8.66,1.74-33.42-1.63-46.27-20.72-51.99-38.33Z"/>
    <path class="cls-2" d="M332.08,394.02c-5.7,17.61-19.83,36.7-53.25,38.33,0,0-7.4.64-9.91-1.74v-36.59h63.16Z"/>
  </g>
  <path class="cls-4" d="M346.93,242.75c.14-1.51.22-3.01.22-4.5,0-.46-.03-.89-.04-1.34.4-25.52-2.01-95.49-9.23-99.81-7.97-4.76-46.66,32.04-51.57,41.09-11.22-2.33-23.46-3.48-36.3-3.48s-24.34,1.09-35.28,3.27c-5.37-9.39-43.55-45.61-51.46-40.88-6.39,3.82-9.01,59-9.26,89.36-.76,3.72-1.15,7.65-1.15,11.8,0,43.69,62.45,94.67,97.15,94.67,32.66,0,89.91-45.18,96.51-86.92.01.01.03.03.03.03.16-.35.29-1.5.38-3.28Z"/>
  <g>
    <g>
      <polygon class="cls-3" points="170.77 226.02 195.32 228.71 195.62 234.98 170.77 237.13 170.77 226.02"/>
      <g>
        <path class="cls-3" d="M212.51,211.91c-16.11,0-29.16,19.32-29.16,19.32,0,0,13.05,19.32,29.16,19.32s29.16-19.32,29.16-19.32c0,0-13.05-19.32-29.16-19.32ZM212.51,244.33c-11.18,0-20.24-13.41-20.24-13.41,0,0,9.06-13.4,20.24-13.4s20.25,13.4,20.25,13.4c0,0-9.07,13.41-20.25,13.41Z"/>
        <path class="cls-5" d="M212.51,219.64c-5.37,0-9.72,5.19-9.72,11.59s4.35,11.59,9.72,11.59,9.72-5.19,9.72-11.59-4.35-11.59-9.72-11.59Z"/>
      </g>
    </g>
    <g>
      <polygon class="cls-3" points="329.24 226.02 304.69 228.71 304.39 234.98 329.24 237.13 329.24 226.02"/>
      <g>
        <path class="cls-3" d="M257.18,231.23s13.05,19.32,29.16,19.32,29.17-19.32,29.17-19.32c0,0-13.06-19.32-29.17-19.32s-29.16,19.32-29.16,19.32ZM266.1,230.92s9.07-13.4,20.24-13.4,20.24,13.4,20.24,13.4c0,0-9.06,13.41-20.24,13.41s-20.24-13.41-20.24-13.41Z"/>
        <path class="cls-5" d="M286.34,219.64c5.37,0,9.72,5.19,9.72,11.59s-4.35,11.59-9.72,11.59-9.72-5.19-9.72-11.59,4.35-11.59,9.72-11.59Z"/>
      </g>
    </g>
  </g>
  <g>
    <path class="cls-2" d="M286.59,103.86c0,20.21-16.38,36.59-36.58,36.59s-36.59-16.38-36.59-36.59c0-8.81,3.12-16.89,8.31-23.2,6.7-8.18,16.88-13.38,28.28-13.38,6.21,0,12.06,1.55,17.19,4.29,11.55,6.13,19.4,18.29,19.4,32.29Z"/>
    <path class="cls-5" d="M270.33,83.53c0,13.47-10.93,24.39-24.39,24.39s-24.39-10.92-24.39-24.39c0-.97.06-1.94.18-2.88,6.7-8.18,16.88-13.38,28.28-13.38,6.21,0,12.06,1.55,17.19,4.29,2,3.53,3.14,7.61,3.14,11.97Z"/>
  </g>
</svg>