<?xml version="1.0" encoding="UTF-8"?>
<svg id="OBJECTS" xmlns="http://www.w3.org/2000/svg" viewBox="0 0 500 500">
  <defs>
    <style>
      .cls-1 {
        fill: #b2f1f6;
      }

      .cls-2 {
        fill: #b99127;
      }

      .cls-3 {
        fill: #67b3bc;
      }

      .cls-4 {
        fill: #283847;
      }

      .cls-5 {
        fill: #eac147;
      }

      .cls-6 {
        fill: #74b5bc;
      }

      .cls-7 {
        fill: #d4cec5;
      }
    </style>
  </defs>
  <g>
    <path class="cls-4" d="M414.49,190.2v-36.04c-32.58-37.23-110.66-108.31-229.65-8.9l-138.51-10.08v42.52h143.59s117.06-122.58,224.57,12.5Z"/>
    <path class="cls-4" d="M453.19,363.99c-5.08-22.18-19.37-37.81-38.22-41.79-15.76-3.34-30.03-.7-40.18,7.42-8.2,6.56-13.41,16.49-15.09,28.72-1.93,14.14,3.46,27.01,14.07,33.6,11.05,6.87,24.52,5.02,34.33-4.67,4.23-4.17,4.65-11.41.95-16.17-3.68-4.77-10.1-5.25-14.32-1.08-4.03,3.98-8.55,3.47-11.19,1.83-1.78-1.1-4.63-3.86-3.79-10.01.84-6.13,3.05-10.55,6.76-13.51,5.55-4.44,14.55-5.75,24.71-3.6,10.9,2.31,19.24,11.65,22.29,25,3.45,15.02-.58,30.55-10.24,39.57-13.93,13.01-38.12,11.4-54.61,6.08-31.79-10.27-77.9-77.62-100.3-114.58,8.95,2.75,18.28,4.4,27.88,4.4,64.97,0,117.6-73.79,117.6-73.79,0,0-52.63-73.79-117.6-73.79-44.76,0-83.97,35.02-103.85,56.81l-146.08-15.1v61.63l146.59-12.01c7.86,8.55,18.72,19.03,31.51,28.62,1.45,13.23,2.36,47.81-26.1,61.58,0,0,27.19,11.46,25.49,47.76l-1.56,28.66v26.04h22.81v-139.04c9.77,15.57,70.35,119.45,118.04,134.84,5.31,1.71,16.98,4.89,30.47,4.89s29.86-3.4,42.65-15.35c15.7-14.66,22.35-39.38,16.95-62.97ZM296.26,179.05c45.07,0,81.65,51.18,81.65,51.18,0,0-36.58,51.22-81.65,51.22s-81.64-51.22-81.64-51.22c0,0,36.55-51.18,81.64-51.18Z"/>
    <path class="cls-7" d="M296.26,275.67c21.65,0,39.2-19.82,39.2-44.26s-17.55-44.27-39.2-44.27-39.21,19.83-39.21,44.27,17.55,44.26,39.21,44.26Z"/>
  </g>
  <g>
    <g>
      <path class="cls-2" d="M49.17,151.64h140.75c2.21,0,4.33.47,5.91-1.08.47-.46,47.82-45.57,106.26-45.57,34.95,0,67.19,16.66,95.84,48.86.27.47.59,1.08.95,1.49,1.33,1.51,2.76,2.98,4.15,4.33,1.99,1.93,4.24,4.16,5,5.72,1.43,2.94,4.4,4.76,7.57,4.76.62,0,1.39-.06,2.01-.21,3.82-.88,6.66-4.27,6.66-8.2v-36.04c0-1.69-.63-3.35-1.58-4.75-4.63-6.79-12.29-13.76-20.35-21.15l-.7-.61c-1.76-1.63-3.68-3.15-5.53-4.62-.82-.65-1.64-1.3-2.43-1.95-.09-.08-.18-.15-.28-.22-24.74-20.44-51.69-31.97-80.07-34.26-5.93-.49-11.87-.57-17.78-.25-17.2.93-34.99,5.28-52.86,12.91-.4.17-.78.36-1.15.58-18.68,8.14-37.66,20.19-57.88,36.77l-133.87-9.83c-2.33-.16-6.73.63-8.44,2.23-1.72,1.59-4.78,3.83-4.78,6.17v39.18c0,4.65,7.96,5.75,12.61,5.75Z"/>
      <path class="cls-2" d="M461.41,333.65c-5.85-25.48-22.57-43.48-44.71-48.15-18.12-3.84-35.12-.55-47.18,9.08-9.9,7.91-16.18,19.72-18.17,34.16-2.39,17.47,4.49,33.52,17.98,41.9,5.66,3.51,12.07,5.36,18.54,5.36,9.55,0,18.85-3.98,26.16-11.22,7.26-7.17,8.01-19.17,1.69-27.33-3.53-4.56-8.74-7.17-14.29-7.17-4.69,0-9.17,1.87-12.61,5.27-.33.33-.59.49-.73.57-.05-.27-.09-.78.02-1.58.73-5.21,2.45-7.12,3.66-8.09,3.45-2.75,10.22-3.54,17.73-1.94,7.61,1.6,13.53,8.56,15.82,18.63,2.78,12.15-.27,24.52-7.78,31.52-6.86,6.41-17.03,7.75-24.37,7.76-7.08,0-14.86-1.09-21.91-3.36-19.34-6.25-51.03-41.72-85.09-93.84h.5c1.65,0,3.18-.61,4.52-1.4,1.5.31,3.21.5,5.08.5,68.54,0,122.21-74.68,124.45-77.86,2.19-3.07,2.06-7.25-.31-10.18-.46-.56-11.36-14.04-29.44-33.02-.9-.94-2-1.66-3.2-2.1-21.23-17.71-40.88-29.4-60.04-35.72-10.37-3.43-20.95-5.17-31.45-5.17-46.04,0-85.85,34.3-107.02,56.81l-139.2-14.58c-2.38-.25-6.83.52-8.61,2.12-1.78,1.6-4.88,3.87-4.88,6.26v61.61c0,2.37,3.09,4.63,4.84,6.22,1.75,1.59,5.13,2.37,7.49,2.17l49.23-4.46c.06,0,.38.03.43.04.22.02.58.03.8.03,1.26,0,2.58-.33,3.72-.87l86.02-7.22c.73.78,1.5,1.57,2.27,2.38,5.07,5.26,10.3,10.24,15.49,14.78,2.93,2.57,6.01,5.13,9.19,7.62.1,1.26.18,2.52.23,3.74.07,2.44.05,4.81-.07,7.06-.42,8.53-2.44,20.59-9.74,29.67-1.03,1.3-2.09,2.45-3.31,3.57-.87.82-1.68,1.51-2.49,2.13-1.94,1.47-3.94,2.71-6.13,3.77-2.96,1.44-4.8,4.48-4.73,7.78.08,3.3,2.08,6.25,5.11,7.55.06.03,5.63,2.46,10.93,8.4,4.73,5.26,7.84,11.53,9.27,18.71.89,4.29,1.34,8.38,1.13,12.71l-.52,28.83v24.15c0,4.65,3.56,7.56,8.21,7.56h21.06c4.65,0,6.57-2.9,6.57-7.56v-107.16c3.26.88,2.06,1.78,2.65,2.68,28.25,43.88,69.94,98.62,105.79,110.19,6.11,1.98,18.76,5.3,33.31,5.3,19.61,0,36-5.92,48.51-17.6,17.86-16.67,25.61-44.54,19.55-71.01Z"/>
    </g>
    <g>
      <g>
        <path class="cls-6" d="M392.44,200.65s-51.26,59.09-96.18,62.19c-32.09,2.21-66-32.64-82.72-52.71-6.7-8.02-10.63-13.69-10.63-13.69,0,0,58.97-101.09,151.63-35.8l7.29,7.69,30.62,32.33Z"/>
        <path class="cls-1" d="M361.82,168.32c-7.05,30.24-46.28,53.39-93.63,53.39-20.34,0-39.21-4.28-54.65-11.58-6.7-8.02-10.63-13.69-10.63-13.69,0,0,58.97-101.09,151.63-35.8l7.29,7.69Z"/>
      </g>
      <g>
        <g>
          <path class="cls-5" d="M404.8,148.86l-.15.89c3.35,3.8,6.59,7.67,9.85,11.99v-36.04c-6.52-6.17-11.46-13.26-19.18-20.34-2.27-2.11-4.79-4.19-7.29-6.25-.02.03.13,0,.13,0-18.96-15.73-44.22-30.05-75.59-32.58-5.4-.44-10.89-.55-16.61-.24-15.45.84-32.08,4.59-50.05,12.27-.14.05-.14.13-.28.21-18.66,8.02-39.43,20.31-60.63,38.02l-138.66-10.08v38.41h143.59s113.37-111.28,214.88,3.74Z"/>
          <path class="cls-5" d="M453.2,335.54c-5.09-22.19-19.37-37.81-38.24-41.79-15.75-3.34-30-.71-40.18,7.42-8.19,6.54-13.4,16.48-15.08,28.72-1.94,14.14,3.46,27,14.07,33.6,11.05,6.85,24.55,5,34.35-4.69,4.22-4.16,4.64-11.41.95-16.17-3.69-4.76-10.11-5.23-14.33-1.07-4.03,3.99-8.53,3.47-11.19,1.82-1.78-1.09-4.61-3.85-3.78-10,.86-6.12,3.05-10.55,6.76-13.52,5.56-4.42,14.55-5.76,24.7-3.59,10.91,2.29,19.26,11.64,22.3,25,3.44,15.03-.58,30.55-10.24,39.56-13.93,13.02-38.13,11.4-54.62,6.09-28.05-9.06-67.31-62.63-91.53-100.49-3.32-5.21-6.37-10.1-9.06-14.56-.82-1.37-1.61-3.86-2.36-5.15.76.07,1.52-1.05,2.3-1.05h.39c5.59,6.52,11.31,6.9,17.16,7.61.3.02.6,1.62.9,1.65.04,0,.11.3.16.45l.05.06h.02c3.17,0,6.34.92,9.57.92,64.97,0,117.58-73.47,117.58-73.47,0,0-10.93-12.16-28.99-31.7h-.03c-.8,0-1.64-1.82-2.47-2.5-15.17-12.66-34.97-27.35-57.29-34.72-9.23-3.05-18.86-5.01-28.81-5.01-44.77,0-83.7,35.91-103.56,57.71-.04.05-.07.81-.11.81h0l-47.42-5.6-98.84-11v61.61l48.87-4.62v-.42l95.08-7.79c.05.06,1.23.11,1.28.17.18.18.93.39,1.12.6.02.03.3.03.32.05,1.32,1.44,2.84,2.92,4.32,4.46,4.36,4.53,9.44,9.4,15.04,14.29,3.65,3.2,7.57,6.38,11.68,9.48.26,2.13.53,4.84.65,7.97.07,2.37.07,4.97-.06,7.71-.54,10.88-3.2,24.11-11.55,34.5-1.24,1.56-2.59,3.05-4.11,4.45-.99.94-2.05,1.85-3.18,2.71-2.26,1.72-4.75,3.28-7.54,4.64.55.23,7.4,3.23,13.9,10.52,4.66,5.18,9.24,12.53,11.25,22.63.9,4.35.61,9.19.36,14.61l-1.48,28.64v25.19h22.81v-138.15c0,4.17,8.54,14.64,17.2,28.08,23.66,36.74,65.91,95.47,100.83,106.74,5.3,1.72,16.98,4.89,30.48,4.89s29.87-3.41,42.65-15.34c15.71-14.66,22.36-39.37,16.97-62.97ZM214.62,201.63s.02,0,.05-.03l.03-.02c.97-1.36,12.48-17.03,30.01-30.76,1.16-.91,2.35-1.82,3.58-2.71,1.71-1.25,3.46-2.48,5.26-3.62.9-.6,1.8-1.17,2.72-1.72.92-.57,1.86-1.12,2.79-1.67.95-.55,1.9-1.07,2.86-1.59,1.87-.99,3.78-1.93,5.72-2.79,1.01-.47,2.05-.91,3.11-1.33.53-.21,1.06-.42,1.59-.63.53-.21,1.06-.41,1.6-.6,1.28-.47,2.57-.88,3.89-1.27,2.79-.83,5.63-1.46,8.51-1.93.95-.16,1.92-.29,2.88-.39,2.33-.29,4.69.68,7.06.68,30.63,0,57.34,23.17,71.29,39.46h.02c6.57,3.26,10.33,10.63,10.33,10.63,0,0-29.64,41.5-68.43,48.02h-.08c-.48,0-.99,1.37-1.47,1.58-2.84,1.25-5.74,1.56-8.7,1.43-.99-.03-1.98.13-2.97.13-19.99,0-38.31-9.95-52.52-21.1-3.27-2.58-6.34-5.18-9.16-7.78-1.04-.96-2.03-1.9-3-2.84-.64-.65-1.29-1.27-1.92-1.89-.75-.75-1.5-1.5-2.19-2.23-.67-.7-1.34-1.4-1.96-2.08-.37-.39-.72-.75-1.06-1.12-1.18-1.3-2.26-2.52-3.22-3.64-4.27-4.9-6.63-8.2-6.63-8.2Z"/>
        </g>
        <g>
          <path class="cls-5" d="M335.46,202.95c0,24.45-17.55,44.26-39.2,44.26s-39.21-19.82-39.21-44.26,17.55-44.27,39.21-44.27,39.2,19.83,39.2,44.27Z"/>
          <path class="cls-1" d="M314.97,202.95c0,11.03-7.92,19.97-17.68,19.97s-17.68-8.94-17.68-19.97,7.92-19.96,17.68-19.96,17.68,8.94,17.68,19.96Z"/>
        </g>
      </g>
      <polygon class="cls-3" points="286.67 277.08 286.14 277.08 286.47 276.74 286.62 276.97 286.67 277.08"/>
      <path class="cls-3" d="M309.49,251.5c-.24.05-.47.1-.72.13l.06-.08.65-.05Z"/>
    </g>
  </g>
</svg>